<?xml version="1.0" encoding="utf-8"?>
<!-- Generator: Adobe Illustrator 17.0.0, SVG Export Plug-In . SVG Version: 6.00 Build 0)  -->
<!DOCTYPE svg PUBLIC "-//W3C//DTD SVG 1.1//EN" "http://www.w3.org/Graphics/SVG/1.1/DTD/svg11.dtd">
<svg version="1.1" id="Capa_1" xmlns="http://www.w3.org/2000/svg" xmlns:xlink="http://www.w3.org/1999/xlink" x="0px" y="0px"
	 width="415.904px" height="408.056px" viewBox="0 0 415.904 408.056" enable-background="new 0 0 415.904 408.056"
	 xml:space="preserve">
<g>
	<g>
		<polygon fill="#FAFBFC" points="204.398,312.965 94.562,312.965 94.562,94.562 222.78,94.562 222.78,155.666 198.413,155.666 
			198.413,125.521 125.521,125.521 125.521,282.006 204.398,282.006 		"/>
		<polygon fill="#FAFBFC" points="203.713,264.267 148.079,264.267 148.079,143.26 175.305,143.26 175.305,251.486 262.272,147.764 
			294.194,147.738 		"/>
		<polygon fill="#FAFBFC" points="321.342,311.178 226.78,311.178 226.78,268.74 275.233,205.347 275.233,290.122 321.342,290.122 
					"/>
	</g>
	<g>
		<g>
			<polygon fill="none" points="415.904,253.24 321.342,253.24 321.342,210.803 369.795,147.409 369.795,232.184 415.904,232.184 
							"/>
			<polygon fill="none" points="243.686,0 243.686,94.562 201.249,94.562 137.855,46.109 222.63,46.109 222.63,0 			"/>
			<polygon fill="none" points="94.562,239.481 0,239.481 0,197.044 48.453,133.65 48.453,218.426 94.562,218.426 			"/>
			<polygon fill="none" points="173.865,408.056 173.865,313.494 216.302,313.494 279.696,361.947 194.92,361.947 194.92,408.056 
							"/>
		</g>
		<rect x="0" y="0" fill="none" width="415.904" height="408.056"/>
	</g>
</g>
</svg>
